<?xml version="1.0" encoding="iso-8859-1"?>
<!-- Uploaded to: SVG Repo, www.svgrepo.com, Generator: SVG Repo Mixer Tools -->
<svg fill="#000000" height="800px" width="800px" version="1.1" id="Layer_1" xmlns="http://www.w3.org/2000/svg" xmlns:xlink="http://www.w3.org/1999/xlink" 
	 viewBox="0 0 496 496" xml:space="preserve">
<g>
	<g>
		<g>
			<path d="M116.56,200.88l6.32,5.264C123.328,206.52,168,244.712,168,328v48.408c-17.952,2.016-32,17.112-32,35.592
				c0,18.48,14.048,33.576,32,35.592V496h160v-48.408c17.952-2.016,32-17.112,32-35.592c0-18.48-14.048-33.576-32-35.592V328
				c0-82.8,44.688-121.488,45.12-121.856l6.32-5.264L248,51.912L116.56,200.88z M272,240c0,13.232-10.768,24-24,24s-24-10.768-24-24
				s10.768-24,24-24S272,226.768,272,240z M312,480H184v-32h128V480z M344,412c0,11.024-8.976,20-20,20H172
				c-11.024,0-20-8.976-20-20s8.976-20,20-20h152C335.024,392,344,400.976,344,412z M256,85.16l100.96,114.424
				C343.504,213.88,312,255.128,312,328v48H184v-48c0-72.872-31.504-114.12-44.96-128.416L240,85.16v115.648
				c-18.232,3.72-32,19.872-32,39.192c0,22.056,17.944,40,40,40c22.056,0,40-17.944,40-40c0-19.312-13.768-35.472-32-39.192V85.16z"
				/>
			<path d="M496,48V0h-48v16H48V0H0v48h48V32h115.504C79.608,64.936,19.432,145.336,16.2,240H0v48h48v-48H32.2
				C36.432,124.592,131.584,32,248,32s211.568,92.592,215.8,208H448v48h48v-48h-16.2c-3.232-94.664-63.408-175.064-147.304-208H448
				v16H496z M464,16h16v16h-16V16z M32,32H16V16h16V32z M32,272H16v-16h16V272z M464,256h16v16h-16V256z"/>
		</g>
	</g>
</g>
</svg>